<?xml version="1.0" encoding="UTF-8"?>
<svg version="1.1" xmlns="http://www.w3.org/2000/svg" width="54" height="57">
<path d="M0 0 C7.33287957 0.76517004 14.48050749 2.21478266 21.6875 3.75 C23.50217773 4.10964844 23.50217773 4.10964844 25.35351562 4.4765625 C36.25192644 6.81408787 36.25192644 6.81408787 40 12 C40.67482422 12.87785156 40.67482422 12.87785156 41.36328125 13.7734375 C44.56347716 19.172945 44.61508306 23.40012044 43.18969727 29.42504883 C42.81901123 30.59060303 42.4483252 31.75615723 42.06640625 32.95703125 C41.86901352 33.58606857 41.67162079 34.2151059 41.46824646 34.86320496 C40.84229191 36.84939057 40.20246936 38.83079178 39.5625 40.8125 C39.13649081 42.16052983 38.7113526 43.50883523 38.28710938 44.85742188 C35.21032092 54.57935816 35.21032092 54.57935816 34 57 C25.9843189 56.50361152 18.41410853 55.18021713 10.625 53.25 C9.57183594 53.01023438 8.51867187 52.77046875 7.43359375 52.5234375 C1.62248302 51.09459659 -2.22249169 49.93922675 -6 45 C-6.44988281 44.41476563 -6.89976563 43.82953125 -7.36328125 43.2265625 C-10.56347716 37.827055 -10.61508306 33.59987956 -9.18969727 27.57495117 C-8.81901123 26.40939697 -8.4483252 25.24384277 -8.06640625 24.04296875 C-7.86901352 23.41393143 -7.67162079 22.7848941 -7.46824646 22.13679504 C-6.84229191 20.15060943 -6.20246936 18.16920822 -5.5625 16.1875 C-5.13649081 14.83947017 -4.7113526 13.49116477 -4.28710938 12.14257812 C-1.21032092 2.42064184 -1.21032092 2.42064184 0 0 Z " fill="#FD0A11" transform="translate(10,0)"/>
<path d="M0 0 C4.49217461 0.10999796 8.59740199 1.06300902 12.9140625 2.24609375 C14.00460938 2.53226563 14.00460938 2.53226563 15.1171875 2.82421875 C16.88512781 3.2894662 18.64995183 3.76652968 20.4140625 4.24609375 C19.91868907 8.78621528 19.40272931 12.92980351 17.8515625 17.24609375 C17.58214844 18.00921875 17.31273438 18.77234375 17.03515625 19.55859375 C16.83019531 20.11546875 16.62523438 20.67234375 16.4140625 21.24609375 C14.7640625 21.24609375 13.1140625 21.24609375 11.4140625 21.24609375 C12.01950125 16.30167732 13.02401258 12.11126847 14.4140625 7.24609375 C9.4640625 6.91609375 4.5140625 6.58609375 -0.5859375 6.24609375 C-0.9159375 8.22609375 -1.2459375 10.20609375 -1.5859375 12.24609375 C-0.87566406 12.41625 -0.16539063 12.58640625 0.56640625 12.76171875 C1.48550781 13.0040625 2.40460937 13.24640625 3.3515625 13.49609375 C4.26808594 13.728125 5.18460938 13.96015625 6.12890625 14.19921875 C8.4140625 15.24609375 8.4140625 15.24609375 9.23046875 17.35546875 C9.32134766 18.29132812 9.32134766 18.29132812 9.4140625 19.24609375 C3.59157394 19.61774196 -1.23408378 18.6222732 -6.5859375 16.24609375 C-7.2459375 15.58609375 -7.9059375 14.92609375 -8.5859375 14.24609375 C-8.16484323 8.12217988 -6.89942643 0.47349005 0 0 Z " fill="#FEEEEE" transform="translate(24.5859375,24.75390625)"/>
<path d="M0 0 C0.87840996 3.09720845 0.99435406 4.90645403 0 8 C0.99 8 1.98 8 3 8 C6.791919 13.68787849 4.77137555 20.42316951 3.64453125 26.84375 C2.66691465 31.63110886 1.38318883 36.31560049 0 41 C-3.67383511 39.4177811 -5.16863545 37.58843332 -7.265625 34.14453125 C-9.86109746 26.56519945 -6.42636444 19.27191731 -4 12.0625 C-3.6184375 10.90169922 -3.236875 9.74089844 -2.84375 8.54492188 C-1.90499091 5.69344115 -0.95685923 2.84544741 0 0 Z " fill="#D7161B" transform="translate(8,6)"/>
<path d="M0 0 C6.14154225 0.58490879 12.00679849 1.54066252 18 3 C17.67 2.01 17.34 1.02 17 0 C21.67008807 0.11191932 25.00627004 0.24918181 28.8125 3.125 C35 11.25714286 35 11.25714286 35 15 C31.7 14.67 28.4 14.34 25 14 C25 13.01 25 12.02 25 11 C24.01 10.67 23.02 10.34 22 10 C21.74476562 9.34515625 21.48953125 8.6903125 21.2265625 8.015625 C20.10650861 5.65491847 20.10650861 5.65491847 16.9609375 5.171875 C15.77757812 5.03265625 14.59421875 4.8934375 13.375 4.75 C12.18648437 4.60046875 10.99796875 4.4509375 9.7734375 4.296875 C8.85820312 4.19890625 7.94296875 4.1009375 7 4 C7.85464844 4.19335938 8.70929687 4.38671875 9.58984375 4.5859375 C10.69457031 4.84632812 11.79929687 5.10671875 12.9375 5.375 C14.03964844 5.63023438 15.14179687 5.88546875 16.27734375 6.1484375 C17.17582031 6.42945313 18.07429688 6.71046875 19 7 C19.33 7.66 19.66 8.32 20 9 C7.59038813 7.09255514 7.59038813 7.09255514 2 4 C0.81640625 1.8984375 0.81640625 1.8984375 0 0 Z " fill="#FF2D25" transform="translate(19,6)"/>
<path d="M0 0 C5.71038706 0.64096181 11.26800594 1.55830396 16.875 2.8125 C18.01195312 3.04163086 18.01195312 3.04163086 19.171875 3.27539062 C24.65372529 4.50929465 24.65372529 4.50929465 26.5078125 7.13671875 C26.75144531 8.05904297 26.75144531 8.05904297 27 9 C20.85845775 8.41509121 14.99320151 7.45933748 9 6 C11.80804268 8.96404505 14.18315774 11.44499019 18 13 C17.67 13.66 17.34 14.32 17 15 C13.41976565 14.84433764 10.31413447 14.40061635 7 13 C4.39957307 9.93230886 2.65733403 6.65152457 1 3 C0.34 3.99 -0.32 4.98 -1 6 C-0.67 4.02 -0.34 2.04 0 0 Z " fill="#FD271E" transform="translate(10,0)"/>
<path d="M0 0 C5.92266776 7.10720131 5.92266776 7.10720131 6.08203125 11.0078125 C4.1987315 25.8012685 4.1987315 25.8012685 0 30 C0.12568359 28.42798828 0.12568359 28.42798828 0.25390625 26.82421875 C0.35708794 25.44533619 0.45993506 24.06642857 0.5625 22.6875 C0.61857422 21.99720703 0.67464844 21.30691406 0.73242188 20.59570312 C0.96581505 17.37487726 1.03224218 15.09672655 0 12 C-0.99 12 -1.98 12 -3 12 C-2.14285714 3.42857143 -2.14285714 3.42857143 0 0 Z " fill="#D3070B" transform="translate(11,2)"/>
<path d="M0 0 C0.66 0 1.32 0 2 0 C4.38334778 3.57502167 4.61560021 5.87691019 4 10 C2.83197159 14.06270751 1.45898529 18.03338375 0 22 C-2.63352208 19.28418035 -3.90730702 17.59091777 -4.5 13.8125 C-3.84341647 8.80605061 -2.06436159 4.58030227 0 0 Z " fill="#F6C9CA" transform="translate(9,14)"/>
<path d="M0 0 C6.14154225 0.58490879 12.00679849 1.54066252 18 3 C17.67 2.01 17.34 1.02 17 0 C18.45922693 0.11409593 19.91740598 0.24165544 21.375 0.375 C22.59316406 0.47941406 22.59316406 0.47941406 23.8359375 0.5859375 C26 1 26 1 28 3 C25.03 2.67 22.06 2.34 19 2 C19.33 2.99 19.66 3.98 20 5 C15.71 4.67 11.42 4.34 7 4 C8.959375 4.45375 10.91875 4.9075 12.9375 5.375 C16.27734375 6.1484375 16.27734375 6.1484375 19 7 C19.33 7.66 19.66 8.32 20 9 C7.59038813 7.09255514 7.59038813 7.09255514 2 4 C0.81640625 1.8984375 0.81640625 1.8984375 0 0 Z " fill="#FEB8B3" transform="translate(19,6)"/>
<path d="M0 0 C5.23880078 0.55145271 9.97350697 1.42922093 15 3 C15.33 4.32 15.66 5.64 16 7 C18.97 7.495 18.97 7.495 22 8 C20 10 20 10 18.08203125 10.046875 C13.21398764 9.41009133 8.6796152 8.49349421 4 7 C4.33 6.01 4.66 5.02 5 4 C7.64 4.33 10.28 4.66 13 5 C12.14535156 4.80664062 11.29070313 4.61328125 10.41015625 4.4140625 C9.30542969 4.15367188 8.20070313 3.89328125 7.0625 3.625 C5.96035156 3.36976562 4.85820312 3.11453125 3.72265625 2.8515625 C2.82417969 2.57054687 1.92570312 2.28953125 1 2 C0.67 1.34 0.34 0.68 0 0 Z " fill="#FF231B" transform="translate(25,9)"/>
<path d="M0 0 C2.28207399 7.88352831 -0.96605806 16.3247474 -3 24 C-3.99 23.67 -4.98 23.34 -6 23 C-5.50387003 14.89654389 -2.679915 7.59474067 0 0 Z " fill="#E14A51" transform="translate(8,6)"/>
<path d="M0 0 C5.97873264 0.90060764 5.97873264 0.90060764 7.08984375 2.01171875 C9.08942739 2.05252658 11.09029629 2.05426231 13.08984375 2.01171875 C13.41984375 3.00171875 13.74984375 3.99171875 14.08984375 5.01171875 C7.9483015 4.42680996 2.08304526 3.47105623 -3.91015625 2.01171875 C-1.91015625 0.01171875 -1.91015625 0.01171875 0 0 Z " fill="#FF271D" transform="translate(22.91015625,3.98828125)"/>
<path d="M0 0 C0.66 0 1.32 0 2 0 C4.48709896 3.73064844 4.29991053 5.57631968 4 10 C3 13.4375 3 13.4375 2 16 C1.67 16 1.34 16 1 16 C1 12.04 1 8.08 1 4 C0.34 4 -0.32 4 -1 4 C-0.67 2.68 -0.34 1.36 0 0 Z " fill="#F9DBDB" transform="translate(9,14)"/>
<path d="M0 0 C0.66 0 1.32 0 2 0 C2.84098656 4.01804691 3.05404945 7.01803543 2 11 C1.34 11 0.68 11 0 11 C-1.28571429 3.57142857 -1.28571429 3.57142857 0 0 Z " fill="#D31114" transform="translate(8,19)"/>
<path d="M0 0 C1.06089844 0.17144531 2.12179688 0.34289062 3.21484375 0.51953125 C6.0625 1.1875 6.0625 1.1875 9.0625 3.1875 C7.0825 3.5175 5.1025 3.8475 3.0625 4.1875 C3.0625 3.5275 3.0625 2.8675 3.0625 2.1875 C2.12277344 2.22230469 2.12277344 2.22230469 1.1640625 2.2578125 C-0.06183594 2.28488281 -0.06183594 2.28488281 -1.3125 2.3125 C-2.12460937 2.33570313 -2.93671875 2.35890625 -3.7734375 2.3828125 C-5.9375 2.1875 -5.9375 2.1875 -7.9375 0.1875 C-5.07515323 -1.24367339 -3.12846333 -0.52709867 0 0 Z " fill="#FF7D75" transform="translate(25.9375,2.8125)"/>
<path d="M0 0 C2.375 0.1875 2.375 0.1875 5 1 C6.3125 3.5625 6.3125 3.5625 7 6 C4.625 5.8125 4.625 5.8125 2 5 C0.6875 2.4375 0.6875 2.4375 0 0 Z " fill="#FFE0DE" transform="translate(39,11)"/>
<path d="M0 0 C2.64 0.66 5.28 1.32 8 2 C7.67 2.99 7.34 3.98 7 5 C4.69 4.67 2.38 4.34 0 4 C0 2.68 0 1.36 0 0 Z " fill="#FF281E" transform="translate(20,10)"/>
<path d="M0 0 C1.2380014 3.57644848 0.74926071 6.33694766 0 10 C-0.99 9.67 -1.98 9.34 -3 9 C-2.4140625 2.84765625 -2.4140625 2.84765625 -2 1 C-1.34 0.67 -0.68 0.34 0 0 Z " fill="#DB353C" transform="translate(5,20)"/>
<path d="M0 0 C2.64 0.33 5.28 0.66 8 1 C5.35261084 2.4606285 4.10551666 3 1 3 C0.34 3.99 -0.32 4.98 -1 6 C-0.67 4.02 -0.34 2.04 0 0 Z " fill="#F5605E" transform="translate(10,0)"/>
</svg>
